<mxfile host="app.diagrams.net" modified="2024-01-19T21:33:15.902Z" agent="Mozilla/5.0 (Windows NT 10.0; Win64; x64) AppleWebKit/537.36 (KHTML, like Gecko) Chrome/120.0.0.0 Safari/537.36 Edg/120.0.0.0" etag="rO-hzFXNT8-zYNJzIi_i" version="21.7.5" type="github">
  <diagram id="6a731a19-8d31-9384-78a2-239565b7b9f0" name="Page-1">
    <mxGraphModel dx="1532" dy="908" grid="1" gridSize="10" guides="1" tooltips="1" connect="1" arrows="1" fold="1" page="1" pageScale="1" pageWidth="1169" pageHeight="827" background="none" math="0" shadow="0">
      <root>
        <mxCell id="0" />
        <mxCell id="1" parent="0" />
        <mxCell id="0RrI3bQFtILESyZNCv1N-89" style="edgeStyle=orthogonalEdgeStyle;rounded=0;orthogonalLoop=1;jettySize=auto;html=1;exitX=1;exitY=0.5;exitDx=0;exitDy=0;exitPerimeter=0;entryX=0.5;entryY=0;entryDx=0;entryDy=0;" edge="1" parent="1" source="2" target="0RrI3bQFtILESyZNCv1N-68">
          <mxGeometry relative="1" as="geometry" />
        </mxCell>
        <mxCell id="2" value="start" style="shape=mxgraph.flowchart.terminator;strokeWidth=2;gradientColor=none;gradientDirection=north;fontStyle=0;html=1;" parent="1" vertex="1">
          <mxGeometry x="219.5" y="30" width="120" height="30" as="geometry" />
        </mxCell>
        <mxCell id="0RrI3bQFtILESyZNCv1N-92" style="edgeStyle=orthogonalEdgeStyle;rounded=0;orthogonalLoop=1;jettySize=auto;html=1;exitX=0.5;exitY=1;exitDx=0;exitDy=0;exitPerimeter=0;entryX=0.5;entryY=0;entryDx=0;entryDy=0;" edge="1" parent="1" source="4" target="0RrI3bQFtILESyZNCv1N-95">
          <mxGeometry relative="1" as="geometry" />
        </mxCell>
        <mxCell id="4" value="Obtener información tabla DBERZCH1" style="shape=mxgraph.flowchart.data;strokeWidth=2;gradientColor=none;gradientDirection=north;fontStyle=0;html=1;whiteSpace=wrap;" parent="1" vertex="1">
          <mxGeometry x="110" y="480" width="159" height="80" as="geometry" />
        </mxCell>
        <mxCell id="8" style="fontStyle=1;strokeColor=#003366;strokeWidth=1;html=1;entryX=0.5;entryY=0;entryDx=0;entryDy=0;exitX=0.5;exitY=1;exitDx=0;exitDy=0;entryPerimeter=0;" parent="1" source="0RrI3bQFtILESyZNCv1N-68" target="0RrI3bQFtILESyZNCv1N-78" edge="1">
          <mxGeometry relative="1" as="geometry">
            <mxPoint x="594" y="192.71428571428567" as="sourcePoint" />
            <mxPoint x="514.5" y="210" as="targetPoint" />
          </mxGeometry>
        </mxCell>
        <mxCell id="0RrI3bQFtILESyZNCv1N-59" style="edgeStyle=orthogonalEdgeStyle;rounded=0;orthogonalLoop=1;jettySize=auto;html=1;entryX=0.5;entryY=0;entryDx=0;entryDy=0;exitX=0.5;exitY=1;exitDx=0;exitDy=0;exitPerimeter=0;" edge="1" parent="1" source="0RrI3bQFtILESyZNCv1N-78">
          <mxGeometry relative="1" as="geometry">
            <mxPoint x="514.5" y="270" as="sourcePoint" />
            <mxPoint x="514.5" y="250" as="targetPoint" />
          </mxGeometry>
        </mxCell>
        <mxCell id="0RrI3bQFtILESyZNCv1N-63" style="edgeStyle=orthogonalEdgeStyle;rounded=0;orthogonalLoop=1;jettySize=auto;html=1;exitX=0.5;exitY=1;exitDx=0;exitDy=0;entryX=0.5;entryY=0;entryDx=0;entryDy=0;" edge="1" parent="1" target="0RrI3bQFtILESyZNCv1N-71">
          <mxGeometry relative="1" as="geometry">
            <mxPoint x="514.5" y="310" as="sourcePoint" />
          </mxGeometry>
        </mxCell>
        <mxCell id="0RrI3bQFtILESyZNCv1N-68" value="Obtención de documento de cálculo (BELNR)" style="whiteSpace=wrap;html=1;" vertex="1" parent="1">
          <mxGeometry x="454.5" y="70" width="120" height="60" as="geometry" />
        </mxCell>
        <mxCell id="0RrI3bQFtILESyZNCv1N-76" style="edgeStyle=orthogonalEdgeStyle;rounded=0;orthogonalLoop=1;jettySize=auto;html=1;exitX=0.5;exitY=1;exitDx=0;exitDy=0;entryX=0.5;entryY=0;entryDx=0;entryDy=0;entryPerimeter=0;" edge="1" parent="1" source="0RrI3bQFtILESyZNCv1N-71" target="0RrI3bQFtILESyZNCv1N-74">
          <mxGeometry relative="1" as="geometry" />
        </mxCell>
        <mxCell id="0RrI3bQFtILESyZNCv1N-71" value="Obtener información de&amp;nbsp;SCHEMANR (esquema de cálculo)" style="whiteSpace=wrap;html=1;" vertex="1" parent="1">
          <mxGeometry x="454.5" y="330" width="120" height="60" as="geometry" />
        </mxCell>
        <mxCell id="0RrI3bQFtILESyZNCv1N-77" style="edgeStyle=orthogonalEdgeStyle;rounded=0;orthogonalLoop=1;jettySize=auto;html=1;exitX=0;exitY=0.5;exitDx=0;exitDy=0;exitPerimeter=0;entryX=0.5;entryY=0;entryDx=0;entryDy=0;entryPerimeter=0;" edge="1" parent="1" source="0RrI3bQFtILESyZNCv1N-74" target="4">
          <mxGeometry relative="1" as="geometry">
            <mxPoint x="304.5" y="520" as="targetPoint" />
          </mxGeometry>
        </mxCell>
        <mxCell id="0RrI3bQFtILESyZNCv1N-80" style="edgeStyle=orthogonalEdgeStyle;rounded=0;orthogonalLoop=1;jettySize=auto;html=1;exitX=0.5;exitY=1;exitDx=0;exitDy=0;exitPerimeter=0;entryX=0.5;entryY=0;entryDx=0;entryDy=0;entryPerimeter=0;" edge="1" parent="1" source="0RrI3bQFtILESyZNCv1N-74" target="0RrI3bQFtILESyZNCv1N-79">
          <mxGeometry relative="1" as="geometry">
            <mxPoint x="454.5" y="528.5" as="sourcePoint" />
            <mxPoint x="635" y="570" as="targetPoint" />
          </mxGeometry>
        </mxCell>
        <mxCell id="0RrI3bQFtILESyZNCv1N-88" style="edgeStyle=orthogonalEdgeStyle;rounded=0;orthogonalLoop=1;jettySize=auto;html=1;exitX=1;exitY=0.5;exitDx=0;exitDy=0;exitPerimeter=0;entryX=0.5;entryY=0;entryDx=0;entryDy=0;entryPerimeter=0;" edge="1" parent="1" source="0RrI3bQFtILESyZNCv1N-74" target="0RrI3bQFtILESyZNCv1N-100">
          <mxGeometry relative="1" as="geometry">
            <mxPoint x="764.5" y="480" as="targetPoint" />
            <Array as="points">
              <mxPoint x="660" y="449" />
              <mxPoint x="660" y="220" />
              <mxPoint x="941" y="220" />
            </Array>
          </mxGeometry>
        </mxCell>
        <mxCell id="0RrI3bQFtILESyZNCv1N-74" value="CASE&lt;br&gt;SCHEMANR" style="shape=mxgraph.flowchart.decision;strokeWidth=2;gradientColor=none;gradientDirection=north;fontStyle=0;html=1;" vertex="1" parent="1">
          <mxGeometry x="443.15" y="407" width="142.7" height="83" as="geometry" />
        </mxCell>
        <mxCell id="0RrI3bQFtILESyZNCv1N-78" value="Obtener información tabla DBERZCH1" style="shape=mxgraph.flowchart.data;strokeWidth=2;gradientColor=none;gradientDirection=north;fontStyle=0;html=1;whiteSpace=wrap;" vertex="1" parent="1">
          <mxGeometry x="435" y="150" width="159" height="80" as="geometry" />
        </mxCell>
        <mxCell id="0RrI3bQFtILESyZNCv1N-86" style="edgeStyle=orthogonalEdgeStyle;rounded=0;orthogonalLoop=1;jettySize=auto;html=1;exitX=0.5;exitY=1;exitDx=0;exitDy=0;exitPerimeter=0;entryX=0.5;entryY=0;entryDx=0;entryDy=0;" edge="1" parent="1" source="0RrI3bQFtILESyZNCv1N-79" target="0RrI3bQFtILESyZNCv1N-85">
          <mxGeometry relative="1" as="geometry" />
        </mxCell>
        <mxCell id="0RrI3bQFtILESyZNCv1N-79" value="&lt;span style=&quot;color: rgb(0, 0, 0); font-family: Helvetica; font-size: 12px; font-style: normal; font-variant-ligatures: normal; font-variant-caps: normal; font-weight: 400; letter-spacing: normal; orphans: 2; text-align: center; text-indent: 0px; text-transform: none; widows: 2; word-spacing: 0px; -webkit-text-stroke-width: 0px; background-color: rgb(251, 251, 251); text-decoration-thickness: initial; text-decoration-style: initial; text-decoration-color: initial; float: none; display: inline !important;&quot;&gt;Obtener información tabla DBERZCH3&lt;/span&gt;" style="shape=mxgraph.flowchart.data;strokeWidth=2;gradientColor=none;gradientDirection=north;fontStyle=0;html=1;whiteSpace=wrap;" vertex="1" parent="1">
          <mxGeometry x="435" y="520" width="159" height="80" as="geometry" />
        </mxCell>
        <mxCell id="0RrI3bQFtILESyZNCv1N-81" value="NREGULADO" style="text;strokeColor=none;align=center;fillColor=none;html=1;verticalAlign=middle;whiteSpace=wrap;rounded=0;" vertex="1" parent="1">
          <mxGeometry x="184.5" y="420" width="60" height="30" as="geometry" />
        </mxCell>
        <mxCell id="0RrI3bQFtILESyZNCv1N-84" value="REGULADO" style="text;strokeColor=none;align=center;fillColor=none;html=1;verticalAlign=middle;whiteSpace=wrap;rounded=0;" vertex="1" parent="1">
          <mxGeometry x="444.5" y="490" width="60" height="30" as="geometry" />
        </mxCell>
        <mxCell id="0RrI3bQFtILESyZNCv1N-85" value="Poder calorífico = PREISBTR" style="whiteSpace=wrap;html=1;" vertex="1" parent="1">
          <mxGeometry x="454.5" y="720" width="120" height="60" as="geometry" />
        </mxCell>
        <mxCell id="0RrI3bQFtILESyZNCv1N-90" value="#NA &lt;br&gt;(Soluciones Energéticas &amp;amp; GI)" style="text;strokeColor=none;align=center;fillColor=none;html=1;verticalAlign=middle;whiteSpace=wrap;rounded=0;" vertex="1" parent="1">
          <mxGeometry x="679.5" y="180" width="180" height="30" as="geometry" />
        </mxCell>
        <mxCell id="0RrI3bQFtILESyZNCv1N-91" value="Poder_calorifico =&amp;nbsp;&lt;br&gt;&amp;nbsp; V_ABRMENGE&amp;nbsp; +&lt;br&gt;&amp;nbsp; N_ABRMENGE" style="whiteSpace=wrap;html=1;" vertex="1" parent="1">
          <mxGeometry x="110" y="670" width="159" height="79.5" as="geometry" />
        </mxCell>
        <mxCell id="0RrI3bQFtILESyZNCv1N-96" style="edgeStyle=orthogonalEdgeStyle;rounded=0;orthogonalLoop=1;jettySize=auto;html=1;exitX=0.5;exitY=1;exitDx=0;exitDy=0;entryX=0.5;entryY=0;entryDx=0;entryDy=0;" edge="1" parent="1" source="0RrI3bQFtILESyZNCv1N-95" target="0RrI3bQFtILESyZNCv1N-91">
          <mxGeometry relative="1" as="geometry" />
        </mxCell>
        <mxCell id="0RrI3bQFtILESyZNCv1N-95" value="&lt;span style=&quot;color: rgb(0, 0, 0); font-family: Helvetica; font-size: 12px; font-style: normal; font-variant-ligatures: normal; font-variant-caps: normal; font-weight: 400; letter-spacing: normal; orphans: 2; text-align: center; text-indent: 0px; text-transform: none; widows: 2; word-spacing: 0px; -webkit-text-stroke-width: 0px; background-color: rgb(251, 251, 251); text-decoration-thickness: initial; text-decoration-style: initial; text-decoration-color: initial; float: none; display: inline !important;&quot;&gt;Filtrar campo&amp;nbsp;&amp;nbsp;BELZART = &quot;ZFPC&quot;&amp;nbsp;&lt;/span&gt;" style="shape=process;whiteSpace=wrap;html=1;backgroundOutline=1;" vertex="1" parent="1">
          <mxGeometry x="110" y="580.25" width="160" height="59.5" as="geometry" />
        </mxCell>
        <mxCell id="0RrI3bQFtILESyZNCv1N-99" value="&lt;span style=&quot;color: rgb(0, 0, 0); font-family: Helvetica; font-size: 12px; font-style: normal; font-variant-ligatures: normal; font-variant-caps: normal; font-weight: 400; letter-spacing: normal; orphans: 2; text-align: center; text-indent: 0px; text-transform: none; widows: 2; word-spacing: 0px; -webkit-text-stroke-width: 0px; background-color: rgb(251, 251, 251); text-decoration-thickness: initial; text-decoration-style: initial; text-decoration-color: initial; float: none; display: inline !important;&quot;&gt;Filtrar campo&amp;nbsp;&amp;nbsp;BELZART = &quot;ZFPC&quot;&amp;nbsp;&lt;/span&gt;" style="shape=process;whiteSpace=wrap;html=1;backgroundOutline=1;" vertex="1" parent="1">
          <mxGeometry x="434.5" y="250" width="160" height="59.5" as="geometry" />
        </mxCell>
        <mxCell id="0RrI3bQFtILESyZNCv1N-100" value="Case:&lt;br&gt;Clase de cuenta" style="shape=mxgraph.flowchart.decision;strokeWidth=2;gradientColor=none;gradientDirection=north;fontStyle=0;html=1;" vertex="1" parent="1">
          <mxGeometry x="854.5" y="240" width="171.93" height="100" as="geometry" />
        </mxCell>
        <mxCell id="0RrI3bQFtILESyZNCv1N-104" value="Asignar PoderCalorífico = 1" style="whiteSpace=wrap;html=1;" vertex="1" parent="1">
          <mxGeometry x="1000" y="405" width="120" height="60" as="geometry" />
        </mxCell>
        <mxCell id="0RrI3bQFtILESyZNCv1N-108" value="" style="edgeStyle=orthogonalEdgeStyle;rounded=0;orthogonalLoop=1;jettySize=auto;html=1;exitX=0;exitY=0.5;exitDx=0;exitDy=0;exitPerimeter=0;entryX=0.5;entryY=0;entryDx=0;entryDy=0;" edge="1" parent="1" source="0RrI3bQFtILESyZNCv1N-100" target="0RrI3bQFtILESyZNCv1N-105">
          <mxGeometry relative="1" as="geometry">
            <mxPoint x="850" y="520" as="sourcePoint" />
            <mxPoint x="790" y="600" as="targetPoint" />
          </mxGeometry>
        </mxCell>
        <mxCell id="0RrI3bQFtILESyZNCv1N-115" style="edgeStyle=orthogonalEdgeStyle;rounded=0;orthogonalLoop=1;jettySize=auto;html=1;exitX=0.5;exitY=1;exitDx=0;exitDy=0;entryX=0.5;entryY=0;entryDx=0;entryDy=0;entryPerimeter=0;" edge="1" parent="1" source="0RrI3bQFtILESyZNCv1N-105" target="0RrI3bQFtILESyZNCv1N-113">
          <mxGeometry relative="1" as="geometry" />
        </mxCell>
        <mxCell id="0RrI3bQFtILESyZNCv1N-105" value="&lt;table style=&quot;border-collapse:&lt;br/&gt; collapse;width:48pt&quot; width=&quot;64&quot; cellspacing=&quot;0&quot; cellpadding=&quot;0&quot; border=&quot;0&quot;&gt; &lt;colgroup&gt;&lt;col style=&quot;width:48pt&quot; width=&quot;64&quot;&gt;&lt;/colgroup&gt; &lt;tbody&gt;&lt;tr style=&quot;height:15.0pt&quot; height=&quot;20&quot;&gt;  &lt;td style=&quot;height:15.0pt;width:48pt&quot; width=&quot;64&quot; height=&quot;20&quot;&gt;0140&lt;/td&gt; &lt;/tr&gt; &lt;tr style=&quot;height:15.0pt&quot; height=&quot;20&quot;&gt;  &lt;td style=&quot;height:15.0pt&quot; height=&quot;20&quot;&gt;0135&lt;/td&gt; &lt;/tr&gt;&lt;/tbody&gt;&lt;/table&gt;" style="text;strokeColor=none;align=center;fillColor=none;html=1;verticalAlign=middle;whiteSpace=wrap;rounded=0;" vertex="1" parent="1">
          <mxGeometry x="750" y="350" width="60" height="55" as="geometry" />
        </mxCell>
        <mxCell id="0RrI3bQFtILESyZNCv1N-110" value="" style="edgeStyle=orthogonalEdgeStyle;rounded=0;orthogonalLoop=1;jettySize=auto;html=1;exitX=1;exitY=0.5;exitDx=0;exitDy=0;exitPerimeter=0;entryX=0.5;entryY=0;entryDx=0;entryDy=0;" edge="1" parent="1" source="0RrI3bQFtILESyZNCv1N-100" target="0RrI3bQFtILESyZNCv1N-106">
          <mxGeometry relative="1" as="geometry">
            <mxPoint x="1060" y="600" as="targetPoint" />
            <mxPoint x="1022" y="520" as="sourcePoint" />
          </mxGeometry>
        </mxCell>
        <mxCell id="0RrI3bQFtILESyZNCv1N-112" style="edgeStyle=orthogonalEdgeStyle;rounded=0;orthogonalLoop=1;jettySize=auto;html=1;exitX=0.5;exitY=1;exitDx=0;exitDy=0;entryX=0.5;entryY=0;entryDx=0;entryDy=0;" edge="1" parent="1" source="0RrI3bQFtILESyZNCv1N-106" target="0RrI3bQFtILESyZNCv1N-104">
          <mxGeometry relative="1" as="geometry" />
        </mxCell>
        <mxCell id="0RrI3bQFtILESyZNCv1N-106" value="Other" style="text;strokeColor=none;align=center;fillColor=none;html=1;verticalAlign=middle;whiteSpace=wrap;rounded=0;" vertex="1" parent="1">
          <mxGeometry x="1030" y="350" width="60" height="30" as="geometry" />
        </mxCell>
        <mxCell id="0RrI3bQFtILESyZNCv1N-126" style="edgeStyle=orthogonalEdgeStyle;rounded=0;orthogonalLoop=1;jettySize=auto;html=1;exitX=0.5;exitY=1;exitDx=0;exitDy=0;exitPerimeter=0;entryX=0.5;entryY=0;entryDx=0;entryDy=0;" edge="1" parent="1" source="0RrI3bQFtILESyZNCv1N-113" target="0RrI3bQFtILESyZNCv1N-121">
          <mxGeometry relative="1" as="geometry" />
        </mxCell>
        <mxCell id="0RrI3bQFtILESyZNCv1N-113" value="&lt;span style=&quot;color: rgb(0, 0, 0); font-family: Helvetica; font-size: 12px; font-style: normal; font-variant-ligatures: normal; font-variant-caps: normal; font-weight: 400; letter-spacing: normal; orphans: 2; text-align: center; text-indent: 0px; text-transform: none; widows: 2; word-spacing: 0px; -webkit-text-stroke-width: 0px; background-color: rgb(251, 251, 251); text-decoration-thickness: initial; text-decoration-style: initial; text-decoration-color: initial; float: none; display: inline !important;&quot;&gt;Obtener información tabla DBERZCH1&lt;/span&gt;" style="shape=mxgraph.flowchart.data;strokeWidth=2;gradientColor=none;gradientDirection=north;fontStyle=0;html=1;whiteSpace=wrap;" vertex="1" parent="1">
          <mxGeometry x="700.5" y="425" width="159" height="80" as="geometry" />
        </mxCell>
        <mxCell id="0RrI3bQFtILESyZNCv1N-116" value="&lt;span style=&quot;color: rgb(0, 0, 0); font-family: Helvetica; font-size: 12px; font-style: normal; font-variant-ligatures: normal; font-variant-caps: normal; font-weight: 400; letter-spacing: normal; orphans: 2; text-align: center; text-indent: 0px; text-transform: none; widows: 2; word-spacing: 0px; -webkit-text-stroke-width: 0px; background-color: rgb(251, 251, 251); text-decoration-thickness: initial; text-decoration-style: initial; text-decoration-color: initial; float: none; display: inline !important;&quot;&gt;Filtrar campo&amp;nbsp;&amp;nbsp;PREIS LIKE&amp;nbsp; &quot;%FPC%&quot;&amp;nbsp;&lt;/span&gt;" style="shape=process;whiteSpace=wrap;html=1;backgroundOutline=1;" vertex="1" parent="1">
          <mxGeometry x="432" y="630" width="168" height="60" as="geometry" />
        </mxCell>
        <mxCell id="0RrI3bQFtILESyZNCv1N-119" value="Poder calorífico = F(&amp;nbsp;V_ABRMENGE&amp;nbsp; +&lt;br style=&quot;border-color: var(--border-color);&quot;&gt;&amp;nbsp; N_ABRMENGE {BELZART= ZCMBTU} ,&amp;nbsp;&lt;br&gt;V_ABRMENGE&amp;nbsp; +&lt;br style=&quot;border-color: var(--border-color);&quot;&gt;&amp;nbsp; N_ABRMENGE {BELZART= ZCONSU}&amp;nbsp;&lt;br&gt;)" style="whiteSpace=wrap;html=1;" vertex="1" parent="1">
          <mxGeometry x="690" y="659.75" width="400" height="100" as="geometry" />
        </mxCell>
        <mxCell id="0RrI3bQFtILESyZNCv1N-127" style="edgeStyle=orthogonalEdgeStyle;rounded=0;orthogonalLoop=1;jettySize=auto;html=1;exitX=0.5;exitY=1;exitDx=0;exitDy=0;entryX=0.5;entryY=0;entryDx=0;entryDy=0;" edge="1" parent="1" source="0RrI3bQFtILESyZNCv1N-121" target="0RrI3bQFtILESyZNCv1N-119">
          <mxGeometry relative="1" as="geometry" />
        </mxCell>
        <mxCell id="0RrI3bQFtILESyZNCv1N-121" value="&lt;span style=&quot;color: rgb(0, 0, 0); font-family: Helvetica; font-size: 12px; font-style: normal; font-variant-ligatures: normal; font-variant-caps: normal; font-weight: 400; letter-spacing: normal; orphans: 2; text-align: center; text-indent: 0px; text-transform: none; widows: 2; word-spacing: 0px; -webkit-text-stroke-width: 0px; background-color: rgb(251, 251, 251); text-decoration-thickness: initial; text-decoration-style: initial; text-decoration-color: initial; float: none; display: inline !important;&quot;&gt;Filtrar campo&amp;nbsp;&amp;nbsp;BELZART IN (&quot;&lt;/span&gt;ZCMBTU&quot;,&lt;br style=&quot;border-color: var(--border-color);&quot;&gt;&quot;ZCONSU&quot;)" style="shape=process;whiteSpace=wrap;html=1;backgroundOutline=1;" vertex="1" parent="1">
          <mxGeometry x="700.5" y="550" width="160" height="59.5" as="geometry" />
        </mxCell>
      </root>
    </mxGraphModel>
  </diagram>
</mxfile>
